<?xml version="1.0" encoding="utf-8"?>
<!-- Generator: Adobe Illustrator 27.5.0, SVG Export Plug-In . SVG Version: 6.00 Build 0)  -->
<svg version="1.1" xmlns="http://www.w3.org/2000/svg" xmlns:xlink="http://www.w3.org/1999/xlink" x="0px" y="0px"
	 viewBox="0 0 500 500" style="enable-background:new 0 0 500 500;" xml:space="preserve">
<g id="BACKGROUND">
	<rect style="fill:#FFFDFB;" width="500" height="500"/>
</g>
<g id="OBJECTS">
	<g>
		<g>
			<path style="fill:#FFFDFB;" d="M308.576,304.825c15.68,2.206,30.612,5.275,44.426,9.13v-68.076h-59.615l15.189,20.867V304.825z"
				/>
			<path style="fill:#FFFDFB;" d="M191.424,266.745l15.189-20.867h-59.615v68.076c13.814-3.855,28.746-6.924,44.426-9.13V266.745z"
				/>
			<g>
				<path style="fill:none;" d="M209.144,117.657l0.051,0.103C209.164,117.697,209.144,117.657,209.144,117.657z"/>
				<path style="fill:none;" d="M210.863,121.149c-0.177-0.36-0.344-0.699-0.496-1.008L210.863,121.149z"/>
				<path style="fill:none;" d="M213.187,125.871c-0.503-1.022-0.969-1.968-1.393-2.831L213.187,125.871z"/>
				<path style="fill:none;" d="M214.015,127.553c-0.046-0.094-0.091-0.185-0.137-0.278L214.015,127.553z"/>
				<path style="fill:none;" d="M209.883,119.158c-0.191-0.388-0.348-0.707-0.466-0.948L209.883,119.158z"/>
				<polygon style="fill:#1D365C;" points="198.97,148.74 198.97,148.74 204.484,146.026 				"/>
				<path style="fill:#1D365C;" d="M210.834,157.716l-3.477,1.711c-0.451,0.222-0.916,0.378-1.385,0.486l-1.524-3.095
					c-0.473,0.108-0.95,0.16-1.424,0.158l14.298,29.048h7.446L210.834,157.716z"/>
				<path style="fill:#1D365C;" d="M213.551,152.338l1.523,3.095c-0.372,0.306-0.779,0.579-1.23,0.801l-3.01,1.482l13.935,28.309
					h5.819l0.971-1.333l-16.674-33.876C214.529,151.385,214.082,151.9,213.551,152.338z"/>
				<path style="fill:#1D365C;" d="M205.834,156.332c-0.451,0.222-0.916,0.379-1.385,0.486l1.524,3.095
					c0.469-0.108,0.934-0.264,1.385-0.486l3.477-1.711l-1.523-3.095L205.834,156.332z"/>
				<path style="fill:#1D365C;" d="M215.074,155.433l-1.523-3.095c-0.372,0.306-0.779,0.579-1.23,0.801l-3.01,1.482l1.523,3.095
					l3.01-1.482C214.295,156.013,214.702,155.74,215.074,155.433z"/>
				
					<rect x="178.783" y="140.539" transform="matrix(0.8972 -0.4416 0.4416 0.8972 -45.0774 95.1391)" style="fill:#1D365C;" width="6.087" height="7.719"/>
				<path style="fill:#1D365C;" d="M204.206,144.252l5.994-2.95l0.757,1.539l2.693-1.326l0,0l5.825-2.867l-4.387-8.913
					c-0.369-0.75-0.729-1.482-1.074-2.181l-0.137-0.278c-0.238-0.483-0.467-0.95-0.691-1.405l-1.393-2.831
					c-0.339-0.688-0.649-1.32-0.931-1.891l-0.496-1.008c-0.18-0.366-0.341-0.693-0.484-0.983l-0.466-0.948
					c-0.103-0.21-0.178-0.361-0.222-0.45l-0.051-0.103l-29.855,14.695l3.564,7.24l2.913-1.434l3.409,6.926l-2.913,1.434l3.359,6.825
					l9.349-4.602l-0.757-1.539L204.206,144.252z"/>
				<polygon style="fill:#1D365C;" points="204.964,145.79 204.206,144.252 198.213,147.202 198.97,148.74 204.484,146.026 				"/>
				
					<rect x="204.242" y="142.688" transform="matrix(0.8972 -0.4416 0.4416 0.8972 -42.0542 106.4314)" style="fill:#1D365C;" width="6.68" height="1.715"/>
				
					<rect x="184.39" y="138.478" transform="matrix(0.8972 -0.4416 0.4416 0.8972 -43.737 96.7769)" style="fill:#1D365C;" width="3.246" height="7.719"/>
				<path style="fill:#1D365C;" d="M173.386,144.251l4.005-1.971l-1.277-2.594c-1.263-2.566-4.367-3.622-6.933-2.359l-5.824,2.866
					l10.332,20.991l5.824-2.866c2.566-1.263,3.622-4.367,2.359-6.933l-1.073-2.179l-4.005,1.971L173.386,144.251z"/>
				
					<rect x="174.862" y="142.869" transform="matrix(0.8972 -0.4416 0.4416 0.8972 -46.5933 93.291)" style="fill:#1D365C;" width="4.464" height="7.719"/>
				<path style="fill:#1D365C;" d="M209.416,118.21c0.119,0.241,0.276,0.56,0.466,0.948l0.484,0.983
					c0.152,0.309,0.319,0.648,0.496,1.008l0.931,1.891c0.425,0.863,0.89,1.808,1.393,2.831l0.691,1.405
					c0.046,0.093,0.09,0.184,0.137,0.278l1.074,2.181c0.335,0.68,0.675,1.372,1.028,2.088c11.651-5.735,18.165-0.463,18.165-0.463
					s0,0,4.854-2.389c-10.332-20.991-29.992-11.313-29.992-11.313s0.02,0.041,0.051,0.103L209.416,118.21z"/>
				<path style="fill:#1D365C;" d="M211.794,123.04l-0.931-1.891C211.144,121.72,211.455,122.352,211.794,123.04z"/>
				<path style="fill:#1D365C;" d="M215.089,129.734l-1.074-2.181C214.359,128.253,214.719,128.984,215.089,129.734z"/>
				<path style="fill:#1D365C;" d="M209.416,118.21l-0.222-0.45C209.238,117.849,209.313,118,209.416,118.21z"/>
				<path style="fill:#1D365C;" d="M210.366,120.141l-0.484-0.983C210.025,119.448,210.186,119.775,210.366,120.141z"/>
				<path style="fill:#1D365C;" d="M213.878,127.275l-0.691-1.405C213.411,126.326,213.641,126.793,213.878,127.275z"/>
				<path style="fill:#1D365C;" d="M196.154,150.993l1.209,2.456c1.098,2.23,3.334,3.52,5.661,3.527l-3.711-7.539L196.154,150.993z"
					/>
				
					<rect x="210.975" y="142.137" transform="matrix(0.8972 -0.4416 0.4416 0.8972 -41.0998 108.4812)" style="fill:#1D365C;" width="3.001" height="0.777"/>
				
					<rect x="195.801" y="149.478" transform="matrix(0.8972 -0.4416 0.4416 0.8972 -45.8744 102.6488)" style="fill:#1D365C;" width="3.522" height="0.777"/>
				<path style="fill:#1D365C;" d="M214.884,150.817c1.121-1.796,1.323-4.109,0.319-6.148l-1.209-2.456l-2.693,1.325
					L214.884,150.817z"/>
				<polygon style="fill:#1D365C;" points="205.307,146.488 204.964,145.79 204.484,146.026 198.97,148.74 199.313,149.438 				"/>
				<path style="fill:#1D365C;" d="M202.353,152.561l4.785-2.355l-1.83-3.718l-5.994,2.95l3.711,7.539
					c0.474,0.001,0.951-0.05,1.424-0.158L202.353,152.561z"/>
				
					<rect x="204.792" y="144.275" transform="matrix(0.8972 -0.4416 0.4416 0.8972 -42.4906 106.7844)" style="fill:#1D365C;" width="6.68" height="0.777"/>
				<path style="fill:#1D365C;" d="M205.307,146.488l1.83,3.718l4.318-2.125l2.096,4.258c0.532-0.438,0.978-0.953,1.333-1.521
					l-3.583-7.279L205.307,146.488z"/>
				<path style="fill:#1D365C;" d="M209.31,154.621l-2.173-4.415l-4.785,2.355l2.096,4.258c0.469-0.108,0.934-0.264,1.385-0.486
					L209.31,154.621z"/>
				<path style="fill:#1D365C;" d="M212.32,153.139c0.451-0.222,0.859-0.495,1.23-0.801l-2.096-4.258l-4.318,2.125l2.173,4.415
					L212.32,153.139z"/>
				<rect x="212.304" y="140.677" style="fill:#1D365C;" width="0" height="3.001"/>
				<polygon style="fill:#1D365C;" points="204.484,146.026 204.964,145.79 204.964,145.79 				"/>
				
					<rect x="204.62" y="144.315" transform="matrix(0.8972 -0.4416 0.4416 0.8972 -42.3542 106.6727)" style="fill:#1D365C;" width="6.681" height="0"/>
				<path style="fill:#1D365C;" d="M163.358,140.193L163.358,140.193l-0.54,0.266c-0.642,0.316-1.189,0.747-1.629,1.255
					c0.44-0.509,0.987-0.939,1.629-1.255L163.358,140.193z"/>
				<path style="fill:#1D365C;" d="M159.974,144.404c0.091-0.659,0.307-1.295,0.637-1.873
					C160.281,143.108,160.064,143.745,159.974,144.404z"/>
				<polygon style="fill:#1D365C;" points="173.69,161.184 173.69,161.184 173.15,161.45 				"/>
				<path style="fill:#1D365C;" d="M162.818,140.459c-0.642,0.316-1.189,0.747-1.629,1.255c-0.22,0.254-0.413,0.528-0.578,0.817
					c-0.33,0.577-0.547,1.214-0.637,1.873c-0.136,0.988,0.012,2.026,0.485,2.988l5.758,11.699c1.263,2.566,4.367,3.622,6.933,2.359
					l0.54-0.266l-10.332-20.991L162.818,140.459z"/>
				<path style="fill:#1D365C;" d="M273.017,186.025l22.79-43.821c0.291-0.56,0.682-1.035,1.14-1.413
					c0.458-0.379,0.982-0.661,1.54-0.837c0.558-0.176,1.15-0.246,1.742-0.199c0.592,0.047,1.185,0.211,1.745,0.502
					c0.56,0.291,1.035,0.682,1.413,1.14c0.379,0.458,0.661,0.982,0.837,1.54c0.352,1.116,0.279,2.366-0.304,3.486l-20.595,39.601
					h4.349l17.387-33.433c7.225,0.219,14.284-3.62,17.843-10.462c3.558-6.842,2.647-14.826-1.68-20.615l-6.105,11.739
					c-1.091,2.099-3.678,2.915-5.777,1.824l-7.359-3.827c-2.099-1.092-2.915-3.678-1.824-5.777l6.105-11.738
					c-7.225-0.218-14.285,3.62-17.843,10.462c-3.558,6.842-2.647,14.826,1.681,20.615l-21.123,40.616l0.434,0.596H273.017z"/>
				<polygon style="fill:#1D365C;" points="277.295,186.025 283.325,186.025 303.92,146.424 				"/>
				<path style="fill:#1D365C;" d="M303.387,141.397c-0.379-0.458-0.853-0.849-1.413-1.14c-0.56-0.291-1.153-0.455-1.745-0.502
					c0.592,0.047,1.185,0.211,1.745,0.502C302.533,140.549,303.008,140.94,303.387,141.397z"/>
				<path style="fill:#1D365C;" d="M296.947,140.791c0.458-0.379,0.982-0.661,1.54-0.837
					C297.929,140.13,297.404,140.413,296.947,140.791z"/>
				<path style="fill:#1D365C;" d="M303.387,141.397c0.379,0.458,0.661,0.982,0.837,1.54
					C304.048,142.38,303.765,141.855,303.387,141.397z"/>
				<path style="fill:#1D365C;" d="M303.92,146.424c0.583-1.12,0.656-2.37,0.304-3.486c-0.176-0.558-0.459-1.082-0.837-1.54
					c-0.379-0.458-0.853-0.849-1.413-1.14c-0.56-0.291-1.153-0.455-1.745-0.502c-0.592-0.047-1.184,0.023-1.742,0.199
					c-0.558,0.176-1.082,0.459-1.54,0.837c-0.458,0.379-0.849,0.853-1.14,1.413l-22.79,43.821h4.278L303.92,146.424z"/>
			</g>
			<polygon style="fill:#1D365C;" points="328.718,189.503 171.282,189.503 142.8,252.891 357.2,252.891 			"/>
			<polygon style="fill:#1D365C;" points="334.226,280.973 250,165.265 165.774,280.973 			"/>
			<path style="fill:#FFFDFB;" d="M293.387,245.879L250,186.275l-43.387,59.604l-15.189,20.867v38.079
				c18.664-2.625,38.387-4.025,58.576-4.025c20.189,0,39.912,1.4,58.576,4.025v-38.079L293.387,245.879z"/>
			<g>
				<rect x="230.421" y="238.676" style="fill:#E07019;" width="16.592" height="20.574"/>
				<rect x="252.986" y="238.676" style="fill:#E07019;" width="16.592" height="20.574"/>
				<rect x="230.421" y="263.233" style="fill:#E07019;" width="16.592" height="20.574"/>
				<rect x="252.986" y="263.233" style="fill:#E07019;" width="16.592" height="20.574"/>
			</g>
		</g>
		<path style="fill:#1D365C;" d="M415.607,351.978C383.6,326.598,321.441,309.382,250,309.382s-133.6,17.216-165.607,42.596
			c44.384-16.662,102.279-26.743,165.607-26.743C313.328,325.235,371.223,335.316,415.607,351.978z"/>
	</g>
</g>
<g id="TEXTS">
	<g>
		<g>
			<text transform="matrix(1 0 0 1 164.8267 357.2558)" style="fill:#1D365C; font-family:'Poppins-Black'; font-size:20.455px;">CONSTRUCTION</text>
			<text transform="matrix(1 0 0 1 165.1372 376.9394)" style="fill:#E07019; font-family:'Poppins-Medium'; font-size:16.0381px;">BUILD &amp; RENOVATION</text>
		</g>
	</g>
</g>
</svg>
